<svg xmlns="http://www.w3.org/2000/svg"><symbol viewBox="0 0 168.17332 171.86398" id="src-1">
  <defs id="defs4"/>
  <metadata id="metadata7">
    <RDF xmlns="http://www.w3.org/1999/02/22-rdf-syntax-ns#">
      <Work xmlns="http://creativecommons.org/ns#" xmlns:ns1="http://www.w3.org/1999/02/22-rdf-syntax-ns#" ns1:about="">
        <format xmlns="http://purl.org/dc/elements/1.1/">image/svg+xml</format>
        <type xmlns="http://purl.org/dc/elements/1.1/" ns1:resource="http://purl.org/dc/dcmitype/StillImage"/>
        <title xmlns="http://purl.org/dc/elements/1.1/"/>
      </Work>
    </RDF>
  </metadata>   
  <g id="G1">
    <path d="M 25,0 C 25,13.807119 13.807119,25 0,25 L 0,46 C 13.807119,46 25,57.192881 25,71 25,84.807119 13.807119,96 0,96 l 0,21 c 13.807119,0 25,11.19288 25,25 l 21,0 c 0,-13.80712 11.192881,-25 25,-25 13.807119,0 25,11.19288 25,25 l 21,0 c 0,-13.80712 11.19288,-25 25,-25 l 0,-21 c -13.80712,0 -25,-11.192881 -25,-25 0,-13.807119 11.19288,-25 25,-25 l 0,-21 C 128.19288,25 117,13.807119 117,0 L 96,0 C 96,13.807119 84.807119,25 71,25 57.192881,25 46,13.807119 46,0 L 25,0 z" id="rect2985" style="fill: rgb(0, 0, 0); fill-opacity: 1; fill-rule: evenodd; stroke: none;"/>
    <path d="m 35.848848,-12.466359 0,171.863599" id="path3892" style="fill: none; stroke: rgb(255, 0, 0); stroke-width: 1; stroke-linecap: butt; stroke-linejoin: miter; stroke-miterlimit: 4; stroke-opacity: 1; stroke-dasharray: 2 1; stroke-dashoffset: 0;"/>
    <path d="m 107.01935,-11.939171 0,170.282031" id="path3916" style="fill: none; stroke: rgb(255, 0, 0); stroke-width: 1; stroke-linecap: butt; stroke-linejoin: miter; stroke-miterlimit: 4; stroke-opacity: 1; stroke-dasharray: 2 1; stroke-dashoffset: 0;"/>
    <path d="m -10.543779,36.562212 167.118899,0" id="path3918" style="fill: none; stroke: rgb(255, 0, 0); stroke-width: 1; stroke-linecap: butt; stroke-linejoin: miter; stroke-miterlimit: 4; stroke-opacity: 1; stroke-dasharray: 2 1; stroke-dashoffset: 0;"/>
    <path d="m -11.598157,105.09677 c 166.591707,0 167.118897,0 167.118897,0" id="path3922" style="fill: none; stroke: rgb(255, 0, 0); stroke-width: 1; stroke-linecap: butt; stroke-linejoin: miter; stroke-miterlimit: 4; stroke-opacity: 1; stroke-dasharray: 2 1; stroke-dashoffset: 0;"/>
    </g>
  </symbol><symbol viewBox="0 0 168.17332 171.86398" id="src-2">
  <defs id="defs4"/>
  <metadata id="metadata7">
    <RDF xmlns="http://www.w3.org/1999/02/22-rdf-syntax-ns#">
      <Work xmlns="http://creativecommons.org/ns#" xmlns:ns1="http://www.w3.org/1999/02/22-rdf-syntax-ns#" ns1:about="">
        <format xmlns="http://purl.org/dc/elements/1.1/">image/svg+xml</format>
        <type xmlns="http://purl.org/dc/elements/1.1/" ns1:resource="http://purl.org/dc/dcmitype/StillImage"/>
        <title xmlns="http://purl.org/dc/elements/1.1/"/>
      </Work>
    </RDF>
  </metadata>   
  <g id="G2">
    <path d="M 25,0 C 25,13.807119 13.807119,25 0,25 L 0,46 C 13.807119,46 25,57.192881 25,71 25,84.807119 13.807119,96 0,96 l 0,21 c 13.807119,0 25,11.19288 25,25 l 21,0 c 0,-13.80712 11.192881,-25 25,-25 13.807119,0 25,11.19288 25,25 l 21,0 c 0,-13.80712 11.19288,-25 25,-25 l 0,-21 c -13.80712,0 -25,-11.192881 -25,-25 0,-13.807119 11.19288,-25 25,-25 l 0,-21 C 128.19288,25 117,13.807119 117,0 L 96,0 C 96,13.807119 84.807119,25 71,25 57.192881,25 46,13.807119 46,0 L 25,0 z" id="rect2985" style="fill: rgb(0, 0, 0); fill-opacity: 1; fill-rule: evenodd; stroke: none;"/>
    <path d="m 35.848848,-12.466359 0,171.863599" id="path3892" style="fill: none; stroke: rgb(255, 0, 0); stroke-width: 1; stroke-linecap: butt; stroke-linejoin: miter; stroke-miterlimit: 4; stroke-opacity: 1; stroke-dasharray: 2 1; stroke-dashoffset: 0;"/>
    <path d="m 107.01935,-11.939171 0,170.282031" id="path3916" style="fill: none; stroke: rgb(255, 0, 0); stroke-width: 1; stroke-linecap: butt; stroke-linejoin: miter; stroke-miterlimit: 4; stroke-opacity: 1; stroke-dasharray: 2 1; stroke-dashoffset: 0;"/>
    <path d="m -10.543779,36.562212 167.118899,0" id="path3918" style="fill: none; stroke: rgb(255, 0, 0); stroke-width: 1; stroke-linecap: butt; stroke-linejoin: miter; stroke-miterlimit: 4; stroke-opacity: 1; stroke-dasharray: 2 1; stroke-dashoffset: 0;"/>
    <path d="m -11.598157,105.09677 c 166.591707,0 167.118897,0 167.118897,0" id="path3922" style="fill: none; stroke: rgb(255, 0, 0); stroke-width: 1; stroke-linecap: butt; stroke-linejoin: miter; stroke-miterlimit: 4; stroke-opacity: 1; stroke-dasharray: 2 1; stroke-dashoffset: 0;"/>
    </g>
  </symbol></svg>
