<?xml version="1.0" standalone="no"?>
<!DOCTYPE svg PUBLIC "-//W3C//DTD SVG 20010904//EN"
 "http://www.w3.org/TR/2001/REC-SVG-20010904/DTD/svg10.dtd">
<svg version="1.0" xmlns="http://www.w3.org/2000/svg"
 width="9960.000000pt" height="1755.000000pt" viewBox="0 0 9960.000000 1755.000000"
 preserveAspectRatio="xMidYMid meet">

<g transform="translate(0.000000,1755.000000) scale(0.100000,-0.100000)"
fill="#000000" stroke="none">
<path d="M3100 16000 l0 -90 45 0 45 0 0 90 0 90 -45 0 -45 0 0 -90z"/>
<path d="M15550 16000 l0 -90 45 0 45 0 0 90 0 90 -45 0 -45 0 0 -90z"/>
<path d="M28000 16000 l0 -90 45 0 45 0 0 90 0 90 -45 0 -45 0 0 -90z"/>
<path d="M40450 16000 l0 -90 45 0 45 0 0 90 0 90 -45 0 -45 0 0 -90z"/>
<path d="M52900 16000 l0 -90 45 0 45 0 0 90 0 90 -45 0 -45 0 0 -90z"/>
<path d="M65350 16000 l0 -90 45 0 45 0 0 90 0 90 -45 0 -45 0 0 -90z"/>
<path d="M77800 16000 l0 -90 45 0 45 0 0 90 0 90 -45 0 -45 0 0 -90z"/>
<path d="M90250 16000 l0 -90 45 0 45 0 0 90 0 90 -45 0 -45 0 0 -90z"/>
<path d="M9340 15955 l0 -85 45 0 45 0 0 85 0 85 -45 0 -45 0 0 -85z"/>
<path d="M21790 15955 l0 -85 45 0 45 0 0 85 0 85 -45 0 -45 0 0 -85z"/>
<path d="M34240 15955 l0 -85 45 0 45 0 0 85 0 85 -45 0 -45 0 0 -85z"/>
<path d="M46690 15955 l0 -85 45 0 45 0 0 85 0 85 -45 0 -45 0 0 -85z"/>
<path d="M59140 15955 l0 -85 45 0 45 0 0 85 0 85 -45 0 -45 0 0 -85z"/>
<path d="M71590 15955 l0 -85 45 0 45 0 0 85 0 85 -45 0 -45 0 0 -85z"/>
<path d="M84040 15955 l0 -85 45 0 45 0 0 85 0 85 -45 0 -45 0 0 -85z"/>
<path d="M96490 15955 l0 -85 45 0 45 0 0 85 0 85 -45 0 -45 0 0 -85z"/>
<path d="M3100 15740 l0 -90 45 0 45 0 0 90 0 90 -45 0 -45 0 0 -90z"/>
<path d="M15550 15740 l0 -90 45 0 45 0 0 90 0 90 -45 0 -45 0 0 -90z"/>
<path d="M28000 15740 l0 -90 45 0 45 0 0 90 0 90 -45 0 -45 0 0 -90z"/>
<path d="M40450 15740 l0 -90 45 0 45 0 0 90 0 90 -45 0 -45 0 0 -90z"/>
<path d="M52900 15740 l0 -90 45 0 45 0 0 90 0 90 -45 0 -45 0 0 -90z"/>
<path d="M65350 15740 l0 -90 45 0 45 0 0 90 0 90 -45 0 -45 0 0 -90z"/>
<path d="M77800 15740 l0 -90 45 0 45 0 0 90 0 90 -45 0 -45 0 0 -90z"/>
<path d="M90250 15740 l0 -90 45 0 45 0 0 90 0 90 -45 0 -45 0 0 -90z"/>
<path d="M9340 15690 l0 -90 45 0 45 0 0 90 0 90 -45 0 -45 0 0 -90z"/>
<path d="M21790 15690 l0 -90 45 0 45 0 0 90 0 90 -45 0 -45 0 0 -90z"/>
<path d="M34240 15690 l0 -90 45 0 45 0 0 90 0 90 -45 0 -45 0 0 -90z"/>
<path d="M46690 15690 l0 -90 45 0 45 0 0 90 0 90 -45 0 -45 0 0 -90z"/>
<path d="M59140 15690 l0 -90 45 0 45 0 0 90 0 90 -45 0 -45 0 0 -90z"/>
<path d="M71590 15690 l0 -90 45 0 45 0 0 90 0 90 -45 0 -45 0 0 -90z"/>
<path d="M84040 15690 l0 -90 45 0 45 0 0 90 0 90 -45 0 -45 0 0 -90z"/>
<path d="M96490 15690 l0 -90 45 0 45 0 0 90 0 90 -45 0 -45 0 0 -90z"/>
<path d="M3100 15475 l0 -85 45 0 45 0 0 85 0 85 -45 0 -45 0 0 -85z"/>
<path d="M15550 15475 l0 -85 45 0 45 0 0 85 0 85 -45 0 -45 0 0 -85z"/>
<path d="M28000 15475 l0 -85 45 0 45 0 0 85 0 85 -45 0 -45 0 0 -85z"/>
<path d="M40450 15475 l0 -85 45 0 45 0 0 85 0 85 -45 0 -45 0 0 -85z"/>
<path d="M52900 15475 l0 -85 45 0 45 0 0 85 0 85 -45 0 -45 0 0 -85z"/>
<path d="M65350 15475 l0 -85 45 0 45 0 0 85 0 85 -45 0 -45 0 0 -85z"/>
<path d="M77800 15475 l0 -85 45 0 45 0 0 85 0 85 -45 0 -45 0 0 -85z"/>
<path d="M90250 15475 l0 -85 45 0 45 0 0 85 0 85 -45 0 -45 0 0 -85z"/>
<path d="M9340 15430 l0 -90 45 0 45 0 0 90 0 90 -45 0 -45 0 0 -90z"/>
<path d="M21790 15430 l0 -90 45 0 45 0 0 90 0 90 -45 0 -45 0 0 -90z"/>
<path d="M34240 15430 l0 -90 45 0 45 0 0 90 0 90 -45 0 -45 0 0 -90z"/>
<path d="M46690 15430 l0 -90 45 0 45 0 0 90 0 90 -45 0 -45 0 0 -90z"/>
<path d="M59140 15430 l0 -90 45 0 45 0 0 90 0 90 -45 0 -45 0 0 -90z"/>
<path d="M71590 15430 l0 -90 45 0 45 0 0 90 0 90 -45 0 -45 0 0 -90z"/>
<path d="M84040 15430 l0 -90 45 0 45 0 0 90 0 90 -45 0 -45 0 0 -90z"/>
<path d="M96490 15430 l0 -90 45 0 45 0 0 90 0 90 -45 0 -45 0 0 -90z"/>
<path d="M3100 15210 l0 -90 45 0 45 0 0 90 0 90 -45 0 -45 0 0 -90z"/>
<path d="M15550 15210 l0 -90 45 0 45 0 0 90 0 90 -45 0 -45 0 0 -90z"/>
<path d="M28000 15210 l0 -90 45 0 45 0 0 90 0 90 -45 0 -45 0 0 -90z"/>
<path d="M40450 15210 l0 -90 45 0 45 0 0 90 0 90 -45 0 -45 0 0 -90z"/>
<path d="M52900 15210 l0 -90 45 0 45 0 0 90 0 90 -45 0 -45 0 0 -90z"/>
<path d="M65350 15210 l0 -90 45 0 45 0 0 90 0 90 -45 0 -45 0 0 -90z"/>
<path d="M77800 15210 l0 -90 45 0 45 0 0 90 0 90 -45 0 -45 0 0 -90z"/>
<path d="M90250 15210 l0 -90 45 0 45 0 0 90 0 90 -45 0 -45 0 0 -90z"/>
<path d="M9340 15165 l0 -85 45 0 45 0 0 85 0 85 -45 0 -45 0 0 -85z"/>
<path d="M21790 15165 l0 -85 45 0 45 0 0 85 0 85 -45 0 -45 0 0 -85z"/>
<path d="M34240 15165 l0 -85 45 0 45 0 0 85 0 85 -45 0 -45 0 0 -85z"/>
<path d="M46690 15165 l0 -85 45 0 45 0 0 85 0 85 -45 0 -45 0 0 -85z"/>
<path d="M59140 15165 l0 -85 45 0 45 0 0 85 0 85 -45 0 -45 0 0 -85z"/>
<path d="M71590 15165 l0 -85 45 0 45 0 0 85 0 85 -45 0 -45 0 0 -85z"/>
<path d="M84040 15165 l0 -85 45 0 45 0 0 85 0 85 -45 0 -45 0 0 -85z"/>
<path d="M96490 15165 l0 -85 45 0 45 0 0 85 0 85 -45 0 -45 0 0 -85z"/>
<path d="M3100 15020 c0 -20 -7 -20 -449 -20 l-449 0 -6 -97 c-30 -474 -173
-870 -442 -1229 -73 -97 -253 -285 -356 -371 -170 -142 -408 -280 -627 -362
-182 -70 -439 -122 -673 -137 l-98 -6 0 -919 0 -919 68 0 c114 0 329 -30 466
-64 795 -201 1407 -816 1600 -1607 43 -180 59 -310 59 -509 1 -362 -66 -656
-222 -975 -351 -714 -1058 -1183 -1843 -1222 l-128 -6 0 -918 0 -917 78 -6
c344 -26 547 -72 799 -181 255 -110 465 -255 674 -464 399 -399 604 -860 645
-1453 l6 -88 449 0 449 0 0 -25 c0 -23 4 -25 45 -25 41 0 45 2 45 25 l0 25
425 0 425 0 0 63 c0 110 30 326 64 461 201 794 817 1407 1607 1600 183 44 308
58 519 58 211 0 336 -14 519 -58 933 -228 1618 -1049 1668 -2001 l6 -123 459
0 458 0 0 -50 0 -50 45 0 45 0 0 50 0 50 414 0 414 0 6 68 c17 207 29 299 52
402 182 815 813 1458 1625 1655 171 41 317 58 514 58 491 0 935 -148 1326
-443 117 -88 342 -315 431 -436 264 -357 401 -740 434 -1216 l6 -88 449 0 449
0 0 -25 c0 -23 4 -25 45 -25 41 0 45 2 45 25 l0 25 425 0 425 0 0 63 c0 110
30 326 64 461 201 794 817 1407 1607 1600 183 44 308 58 519 58 211 0 336 -14
519 -58 933 -228 1618 -1049 1668 -2001 l6 -123 459 0 458 0 0 -50 0 -50 45 0
45 0 0 50 0 50 414 0 414 0 6 67 c17 208 29 300 52 403 182 815 813 1458 1625
1655 171 41 317 58 514 58 491 0 935 -148 1326 -443 117 -88 342 -315 431
-436 264 -357 401 -740 434 -1216 l6 -88 449 0 449 0 0 -25 c0 -23 4 -25 45
-25 41 0 45 2 45 25 l0 25 425 0 425 0 0 63 c0 110 30 326 64 461 201 794 817
1407 1607 1600 183 44 308 58 519 58 211 0 336 -14 519 -58 933 -228 1618
-1049 1668 -2001 l6 -123 459 0 458 0 0 -50 0 -50 45 0 45 0 0 50 0 50 414 0
414 0 6 67 c17 208 29 300 52 403 182 815 813 1458 1625 1655 171 41 317 58
514 58 491 0 935 -148 1326 -443 117 -88 342 -315 431 -436 264 -357 401 -740
434 -1216 l6 -88 449 0 449 0 0 -25 c0 -23 4 -25 45 -25 41 0 45 2 45 25 l0
25 425 0 425 0 0 63 c0 110 30 326 64 461 201 794 817 1407 1607 1600 183 44
308 58 519 58 211 0 336 -14 519 -58 933 -228 1618 -1049 1668 -2001 l6 -123
459 0 458 0 0 -50 0 -50 45 0 45 0 0 50 0 50 414 0 414 0 6 68 c17 207 29 299
52 402 182 815 813 1458 1625 1655 171 41 317 58 514 58 491 0 935 -148 1326
-443 117 -88 342 -315 431 -436 264 -357 401 -740 434 -1216 l6 -88 449 0 449
0 0 -25 c0 -23 4 -25 45 -25 41 0 45 2 45 25 l0 25 425 0 425 0 0 63 c0 110
30 326 64 461 201 794 817 1407 1607 1600 183 44 308 58 519 58 211 0 336 -14
519 -58 933 -228 1618 -1049 1668 -2001 l6 -123 459 0 458 0 0 -50 0 -50 45 0
45 0 0 50 0 50 414 0 414 0 6 67 c17 208 29 300 52 403 182 815 813 1458 1625
1655 171 41 317 58 514 58 491 0 935 -148 1326 -443 117 -88 342 -315 431
-436 264 -357 401 -740 434 -1216 l6 -88 449 0 449 0 0 -25 c0 -23 4 -25 45
-25 41 0 45 2 45 25 l0 25 425 0 425 0 0 63 c0 110 30 326 64 461 201 794 817
1407 1607 1600 183 44 308 58 519 58 211 0 336 -14 519 -58 933 -228 1618
-1049 1668 -2002 l6 -122 459 0 458 0 0 -50 0 -50 45 0 45 0 0 50 0 50 414 0
414 0 6 68 c17 207 29 299 52 402 182 815 813 1458 1625 1655 171 41 317 58
514 58 491 0 935 -148 1326 -443 117 -88 342 -315 431 -436 264 -357 401 -740
434 -1216 l6 -88 449 0 449 0 0 -25 c0 -23 4 -25 45 -25 41 0 45 2 45 25 l0
25 425 0 425 0 0 63 c0 110 30 326 64 461 201 794 817 1407 1607 1600 183 44
308 58 519 58 211 0 336 -14 519 -58 933 -228 1618 -1049 1668 -2001 l6 -123
459 0 458 0 0 -50 0 -50 45 0 45 0 0 50 0 50 414 0 414 0 6 68 c17 207 29 299
52 402 182 815 813 1458 1625 1655 171 41 317 58 514 58 491 0 935 -148 1326
-443 117 -88 342 -315 431 -436 264 -357 401 -740 434 -1216 l6 -88 449 0 449
0 0 -25 c0 -23 4 -25 45 -25 41 0 45 2 45 25 l0 25 425 0 425 0 0 63 c0 110
30 326 64 461 201 794 817 1407 1607 1600 183 44 308 58 519 58 211 0 336 -14
519 -58 933 -228 1618 -1049 1668 -2001 l6 -123 459 0 458 0 0 -50 0 -50 45 0
45 0 0 50 0 50 414 0 414 0 6 68 c17 207 29 299 52 402 185 829 835 1479 1664
1664 103 23 195 35 403 52 l67 6 0 919 0 919 -67 0 c-175 0 -409 42 -618 112
-790 261 -1353 935 -1481 1773 -22 149 -22 461 0 610 137 897 771 1600 1642
1821 135 34 351 64 462 64 l62 0 0 919 0 919 -97 7 c-235 15 -462 61 -649 130
-712 264 -1233 865 -1392 1606 -20 90 -35 214 -48 382 l-6 77 -919 0 -919 0 0
-70 c0 -174 -43 -418 -109 -620 -183 -560 -583 -1019 -1116 -1280 -215 -106
-416 -168 -660 -206 -135 -20 -439 -23 -575 -5 -908 121 -1632 764 -1856 1647
-34 137 -64 352 -64 467 l0 67 -425 0 c-418 0 -425 0 -425 20 0 17 -7 20 -45
20 -38 0 -45 -3 -45 -20 0 -20 -7 -20 -449 -20 l-449 0 -6 -97 c-22 -336 -88
-593 -227 -879 -109 -225 -250 -416 -450 -609 -335 -324 -734 -519 -1209 -591
-154 -23 -463 -23 -615 0 -920 141 -1639 814 -1833 1717 -20 90 -35 214 -48
382 l-6 77 -919 0 -919 0 0 -70 c0 -174 -43 -418 -109 -620 -183 -560 -583
-1019 -1116 -1280 -215 -106 -416 -168 -660 -206 -135 -20 -439 -23 -575 -5
-908 121 -1632 764 -1856 1647 -34 137 -64 352 -64 467 l0 67 -425 0 c-418 0
-425 0 -425 20 0 17 -7 20 -45 20 -38 0 -45 -3 -45 -20 0 -20 -7 -20 -449 -20
l-449 0 -6 -97 c-30 -474 -173 -870 -442 -1229 -73 -97 -253 -285 -356 -371
-170 -142 -408 -280 -627 -362 -111 -43 -319 -95 -461 -117 -154 -23 -463 -23
-615 0 -920 141 -1639 814 -1833 1717 -20 90 -35 214 -48 382 l-6 77 -919 0
-919 0 0 -70 c0 -174 -43 -418 -109 -620 -183 -560 -583 -1019 -1116 -1280
-215 -106 -416 -168 -660 -206 -135 -20 -439 -23 -575 -5 -908 121 -1632 764
-1856 1647 -34 137 -64 352 -64 467 l0 67 -425 0 c-418 0 -425 0 -425 20 0 17
-7 20 -45 20 -38 0 -45 -3 -45 -20 0 -20 -7 -20 -449 -20 l-449 0 -6 -97 c-30
-474 -173 -870 -442 -1229 -73 -97 -253 -285 -356 -371 -170 -142 -408 -280
-627 -362 -111 -43 -319 -95 -461 -117 -154 -23 -463 -23 -615 0 -920 141
-1639 814 -1833 1717 -20 90 -35 214 -48 382 l-6 77 -919 0 -919 0 0 -70 c0
-174 -43 -418 -109 -620 -183 -560 -583 -1019 -1116 -1280 -215 -106 -416
-168 -660 -206 -135 -20 -439 -23 -575 -5 -908 121 -1632 764 -1856 1647 -34
137 -64 352 -64 467 l0 67 -425 0 c-418 0 -425 0 -425 20 0 17 -7 20 -45 20
-38 0 -45 -3 -45 -20 0 -20 -7 -20 -449 -20 l-449 0 -6 -97 c-30 -474 -173
-870 -442 -1229 -73 -97 -253 -285 -356 -371 -170 -142 -408 -280 -627 -362
-111 -43 -319 -95 -461 -117 -154 -23 -463 -23 -615 0 -920 141 -1639 814
-1833 1717 -20 90 -35 214 -48 382 l-6 77 -919 0 -919 0 0 -70 c0 -174 -43
-418 -109 -620 -183 -560 -583 -1019 -1116 -1280 -215 -106 -416 -168 -660
-206 -135 -20 -439 -23 -575 -5 -908 121 -1632 764 -1856 1647 -34 137 -64
352 -64 467 l0 67 -425 0 c-418 0 -425 0 -425 20 0 17 -7 20 -45 20 -38 0 -45
-3 -45 -20 0 -20 -7 -20 -449 -20 l-449 0 -6 -97 c-30 -474 -173 -870 -442
-1229 -73 -97 -253 -285 -356 -371 -170 -142 -408 -280 -627 -362 -111 -43
-319 -95 -461 -117 -154 -23 -463 -23 -615 0 -920 141 -1639 814 -1833 1717
-20 90 -35 214 -48 382 l-6 77 -919 0 -919 0 0 -70 c0 -174 -43 -418 -109
-620 -183 -560 -583 -1019 -1116 -1280 -215 -106 -416 -168 -660 -206 -135
-20 -439 -23 -575 -5 -908 121 -1632 764 -1856 1647 -34 137 -64 352 -64 467
l0 67 -425 0 c-418 0 -425 0 -425 20 0 17 -7 20 -45 20 -38 0 -45 -3 -45 -20
0 -20 -7 -20 -449 -20 l-449 0 -6 -97 c-30 -474 -173 -870 -442 -1229 -73 -97
-253 -285 -356 -371 -170 -142 -408 -280 -627 -362 -111 -43 -319 -95 -461
-117 -154 -23 -463 -23 -615 0 -920 141 -1639 814 -1833 1717 -20 90 -35 214
-48 382 l-6 77 -919 0 -919 0 0 -70 c0 -174 -43 -418 -109 -620 -183 -560
-583 -1019 -1116 -1280 -215 -106 -416 -168 -660 -206 -135 -20 -439 -23 -575
-5 -908 121 -1632 764 -1856 1647 -34 137 -64 352 -64 467 l0 67 -425 0 c-418
0 -425 0 -425 20 0 17 -7 20 -45 20 -38 0 -45 -3 -45 -20 0 -20 -7 -20 -449
-20 l-449 0 -6 -97 c-30 -474 -173 -870 -442 -1229 -73 -97 -253 -285 -356
-371 -170 -142 -408 -280 -627 -362 -111 -43 -319 -95 -461 -117 -154 -23
-463 -23 -615 0 -920 141 -1639 814 -1833 1717 -20 90 -35 214 -48 382 l-6 77
-919 0 -919 0 0 -70 c0 -174 -43 -418 -109 -620 -183 -560 -583 -1019 -1116
-1280 -215 -106 -416 -168 -660 -206 -135 -20 -439 -23 -575 -5 -908 121
-1632 764 -1856 1647 -34 137 -64 352 -64 467 l0 67 -425 0 c-418 0 -425 0
-425 20 0 17 -7 20 -45 20 -38 0 -45 -3 -45 -20z m9619 -4076 c898 -104 1649
-771 1865 -1655 43 -180 59 -310 59 -509 1 -362 -66 -656 -222 -975 -316 -642
-906 -1079 -1621 -1200 -133 -23 -419 -31 -563 -16 -926 96 -1691 762 -1911
1662 -44 183 -58 308 -58 519 0 211 14 336 58 519 109 446 366 862 713 1152
472 396 1068 575 1680 503z m12450 0 c898 -104 1649 -771 1865 -1655 43 -180
59 -310 59 -509 1 -362 -66 -656 -222 -975 -316 -642 -906 -1079 -1621 -1200
-133 -23 -419 -31 -563 -16 -926 96 -1691 762 -1911 1662 -44 183 -58 308 -58
519 0 211 14 336 58 519 109 446 366 862 713 1152 472 396 1068 575 1680 503z
m12450 0 c898 -104 1649 -771 1865 -1655 43 -180 59 -310 59 -509 1 -362 -66
-656 -222 -975 -316 -642 -906 -1079 -1621 -1200 -133 -23 -419 -31 -563 -16
-926 96 -1691 762 -1911 1662 -44 183 -58 308 -58 519 0 211 14 336 58 519
109 446 366 862 713 1152 472 396 1068 575 1680 503z m12450 0 c898 -104 1649
-771 1865 -1655 43 -180 59 -310 59 -509 1 -362 -66 -656 -222 -975 -316 -642
-906 -1079 -1621 -1200 -133 -23 -419 -31 -563 -16 -926 96 -1691 762 -1911
1662 -44 183 -58 308 -58 519 0 211 14 336 58 519 109 446 366 862 713 1152
472 396 1068 575 1680 503z m12450 0 c898 -104 1649 -771 1865 -1655 43 -180
59 -310 59 -509 1 -362 -66 -656 -222 -975 -316 -642 -906 -1079 -1621 -1200
-133 -23 -419 -31 -563 -16 -926 96 -1691 762 -1911 1662 -44 183 -58 308 -58
519 0 211 14 336 58 519 109 446 366 862 713 1152 472 396 1068 575 1680 503z
m12450 0 c898 -104 1649 -771 1865 -1655 43 -180 59 -310 59 -509 1 -362 -66
-656 -222 -975 -316 -642 -906 -1079 -1621 -1200 -133 -23 -419 -31 -563 -16
-926 96 -1691 762 -1911 1662 -44 183 -58 308 -58 519 0 211 14 336 58 519
109 446 366 862 713 1152 472 396 1068 575 1680 503z m12450 0 c898 -104 1649
-771 1865 -1655 43 -180 59 -310 59 -509 1 -362 -66 -656 -222 -975 -316 -642
-906 -1079 -1621 -1200 -133 -23 -419 -31 -563 -16 -926 96 -1691 762 -1911
1662 -44 183 -58 308 -58 519 0 211 14 336 58 519 109 446 366 862 713 1152
472 396 1068 575 1680 503z"/>
<path d="M3100 2325 l0 -85 45 0 45 0 0 85 0 85 -45 0 -45 0 0 -85z"/>
<path d="M15550 2325 l0 -85 45 0 45 0 0 85 0 85 -45 0 -45 0 0 -85z"/>
<path d="M28000 2325 l0 -85 45 0 45 0 0 85 0 85 -45 0 -45 0 0 -85z"/>
<path d="M40450 2325 l0 -85 45 0 45 0 0 85 0 85 -45 0 -45 0 0 -85z"/>
<path d="M52900 2325 l0 -85 45 0 45 0 0 85 0 85 -45 0 -45 0 0 -85z"/>
<path d="M65350 2325 l0 -85 45 0 45 0 0 85 0 85 -45 0 -45 0 0 -85z"/>
<path d="M77800 2325 l0 -85 45 0 45 0 0 85 0 85 -45 0 -45 0 0 -85z"/>
<path d="M90250 2325 l0 -85 45 0 45 0 0 85 0 85 -45 0 -45 0 0 -85z"/>
<path d="M9340 2275 l0 -85 45 0 45 0 0 85 0 85 -45 0 -45 0 0 -85z"/>
<path d="M21790 2275 l0 -85 45 0 45 0 0 85 0 85 -45 0 -45 0 0 -85z"/>
<path d="M34240 2275 l0 -85 45 0 45 0 0 85 0 85 -45 0 -45 0 0 -85z"/>
<path d="M46690 2275 l0 -85 45 0 45 0 0 85 0 85 -45 0 -45 0 0 -85z"/>
<path d="M59140 2275 l0 -85 45 0 45 0 0 85 0 85 -45 0 -45 0 0 -85z"/>
<path d="M71590 2275 l0 -85 45 0 45 0 0 85 0 85 -45 0 -45 0 0 -85z"/>
<path d="M84040 2275 l0 -85 45 0 45 0 0 85 0 85 -45 0 -45 0 0 -85z"/>
<path d="M96490 2275 l0 -85 45 0 45 0 0 85 0 85 -45 0 -45 0 0 -85z"/>
<path d="M3100 2060 l0 -90 45 0 45 0 0 90 0 90 -45 0 -45 0 0 -90z"/>
<path d="M15550 2060 l0 -90 45 0 45 0 0 90 0 90 -45 0 -45 0 0 -90z"/>
<path d="M28000 2060 l0 -90 45 0 45 0 0 90 0 90 -45 0 -45 0 0 -90z"/>
<path d="M40450 2060 l0 -90 45 0 45 0 0 90 0 90 -45 0 -45 0 0 -90z"/>
<path d="M52900 2060 l0 -90 45 0 45 0 0 90 0 90 -45 0 -45 0 0 -90z"/>
<path d="M65350 2060 l0 -90 45 0 45 0 0 90 0 90 -45 0 -45 0 0 -90z"/>
<path d="M77800 2060 l0 -90 45 0 45 0 0 90 0 90 -45 0 -45 0 0 -90z"/>
<path d="M90250 2060 l0 -90 45 0 45 0 0 90 0 90 -45 0 -45 0 0 -90z"/>
<path d="M9340 2015 l0 -85 45 0 45 0 0 85 0 85 -45 0 -45 0 0 -85z"/>
<path d="M21790 2015 l0 -85 45 0 45 0 0 85 0 85 -45 0 -45 0 0 -85z"/>
<path d="M34240 2015 l0 -85 45 0 45 0 0 85 0 85 -45 0 -45 0 0 -85z"/>
<path d="M46690 2015 l0 -85 45 0 45 0 0 85 0 85 -45 0 -45 0 0 -85z"/>
<path d="M59140 2015 l0 -85 45 0 45 0 0 85 0 85 -45 0 -45 0 0 -85z"/>
<path d="M71590 2015 l0 -85 45 0 45 0 0 85 0 85 -45 0 -45 0 0 -85z"/>
<path d="M84040 2015 l0 -85 45 0 45 0 0 85 0 85 -45 0 -45 0 0 -85z"/>
<path d="M96490 2015 l0 -85 45 0 45 0 0 85 0 85 -45 0 -45 0 0 -85z"/>
<path d="M3100 1795 l0 -85 45 0 45 0 0 85 0 85 -45 0 -45 0 0 -85z"/>
<path d="M15550 1795 l0 -85 45 0 45 0 0 85 0 85 -45 0 -45 0 0 -85z"/>
<path d="M28000 1795 l0 -85 45 0 45 0 0 85 0 85 -45 0 -45 0 0 -85z"/>
<path d="M40450 1795 l0 -85 45 0 45 0 0 85 0 85 -45 0 -45 0 0 -85z"/>
<path d="M52900 1795 l0 -85 45 0 45 0 0 85 0 85 -45 0 -45 0 0 -85z"/>
<path d="M65350 1795 l0 -85 45 0 45 0 0 85 0 85 -45 0 -45 0 0 -85z"/>
<path d="M77800 1795 l0 -85 45 0 45 0 0 85 0 85 -45 0 -45 0 0 -85z"/>
<path d="M90250 1795 l0 -85 45 0 45 0 0 85 0 85 -45 0 -45 0 0 -85z"/>
<path d="M9340 1750 l0 -90 45 0 45 0 0 90 0 90 -45 0 -45 0 0 -90z"/>
<path d="M21790 1750 l0 -90 45 0 45 0 0 90 0 90 -45 0 -45 0 0 -90z"/>
<path d="M34240 1750 l0 -90 45 0 45 0 0 90 0 90 -45 0 -45 0 0 -90z"/>
<path d="M46690 1750 l0 -90 45 0 45 0 0 90 0 90 -45 0 -45 0 0 -90z"/>
<path d="M59140 1750 l0 -90 45 0 45 0 0 90 0 90 -45 0 -45 0 0 -90z"/>
<path d="M71590 1750 l0 -90 45 0 45 0 0 90 0 90 -45 0 -45 0 0 -90z"/>
<path d="M84040 1750 l0 -90 45 0 45 0 0 90 0 90 -45 0 -45 0 0 -90z"/>
<path d="M96490 1750 l0 -90 45 0 45 0 0 90 0 90 -45 0 -45 0 0 -90z"/>
<path d="M3100 1535 l0 -85 45 0 45 0 0 85 0 85 -45 0 -45 0 0 -85z"/>
<path d="M15550 1535 l0 -85 45 0 45 0 0 85 0 85 -45 0 -45 0 0 -85z"/>
<path d="M28000 1535 l0 -85 45 0 45 0 0 85 0 85 -45 0 -45 0 0 -85z"/>
<path d="M40450 1535 l0 -85 45 0 45 0 0 85 0 85 -45 0 -45 0 0 -85z"/>
<path d="M52900 1535 l0 -85 45 0 45 0 0 85 0 85 -45 0 -45 0 0 -85z"/>
<path d="M65350 1535 l0 -85 45 0 45 0 0 85 0 85 -45 0 -45 0 0 -85z"/>
<path d="M77800 1535 l0 -85 45 0 45 0 0 85 0 85 -45 0 -45 0 0 -85z"/>
<path d="M90250 1535 l0 -85 45 0 45 0 0 85 0 85 -45 0 -45 0 0 -85z"/>
<path d="M9340 1490 l0 -90 45 0 45 0 0 90 0 90 -45 0 -45 0 0 -90z"/>
<path d="M21790 1490 l0 -90 45 0 45 0 0 90 0 90 -45 0 -45 0 0 -90z"/>
<path d="M34240 1490 l0 -90 45 0 45 0 0 90 0 90 -45 0 -45 0 0 -90z"/>
<path d="M46690 1490 l0 -90 45 0 45 0 0 90 0 90 -45 0 -45 0 0 -90z"/>
<path d="M59140 1490 l0 -90 45 0 45 0 0 90 0 90 -45 0 -45 0 0 -90z"/>
<path d="M71590 1490 l0 -90 45 0 45 0 0 90 0 90 -45 0 -45 0 0 -90z"/>
<path d="M84040 1490 l0 -90 45 0 45 0 0 90 0 90 -45 0 -45 0 0 -90z"/>
<path d="M96490 1490 l0 -90 45 0 45 0 0 90 0 90 -45 0 -45 0 0 -90z"/>
<path d="M3100 1270 l0 -90 45 0 45 0 0 90 0 90 -45 0 -45 0 0 -90z"/>
<path d="M15550 1270 l0 -90 45 0 45 0 0 90 0 90 -45 0 -45 0 0 -90z"/>
<path d="M28000 1270 l0 -90 45 0 45 0 0 90 0 90 -45 0 -45 0 0 -90z"/>
<path d="M40450 1270 l0 -90 45 0 45 0 0 90 0 90 -45 0 -45 0 0 -90z"/>
<path d="M52900 1270 l0 -90 45 0 45 0 0 90 0 90 -45 0 -45 0 0 -90z"/>
<path d="M65350 1270 l0 -90 45 0 45 0 0 90 0 90 -45 0 -45 0 0 -90z"/>
<path d="M77800 1270 l0 -90 45 0 45 0 0 90 0 90 -45 0 -45 0 0 -90z"/>
<path d="M90250 1270 l0 -90 45 0 45 0 0 90 0 90 -45 0 -45 0 0 -90z"/>
<path d="M9340 1225 l0 -85 45 0 45 0 0 85 0 85 -45 0 -45 0 0 -85z"/>
<path d="M21790 1225 l0 -85 45 0 45 0 0 85 0 85 -45 0 -45 0 0 -85z"/>
<path d="M34240 1225 l0 -85 45 0 45 0 0 85 0 85 -45 0 -45 0 0 -85z"/>
<path d="M46690 1225 l0 -85 45 0 45 0 0 85 0 85 -45 0 -45 0 0 -85z"/>
<path d="M59140 1225 l0 -85 45 0 45 0 0 85 0 85 -45 0 -45 0 0 -85z"/>
<path d="M71590 1225 l0 -85 45 0 45 0 0 85 0 85 -45 0 -45 0 0 -85z"/>
<path d="M84040 1225 l0 -85 45 0 45 0 0 85 0 85 -45 0 -45 0 0 -85z"/>
<path d="M96490 1225 l0 -85 45 0 45 0 0 85 0 85 -45 0 -45 0 0 -85z"/>
<path d="M3100 1060 l0 -40 45 0 45 0 0 40 0 40 -45 0 -45 0 0 -40z"/>
<path d="M15550 1060 l0 -40 45 0 45 0 0 40 0 40 -45 0 -45 0 0 -40z"/>
<path d="M28000 1060 l0 -40 45 0 45 0 0 40 0 40 -45 0 -45 0 0 -40z"/>
<path d="M40450 1060 l0 -40 45 0 45 0 0 40 0 40 -45 0 -45 0 0 -40z"/>
<path d="M52900 1060 l0 -40 45 0 45 0 0 40 0 40 -45 0 -45 0 0 -40z"/>
<path d="M65350 1060 l0 -40 45 0 45 0 0 40 0 40 -45 0 -45 0 0 -40z"/>
<path d="M77800 1060 l0 -40 45 0 45 0 0 40 0 40 -45 0 -45 0 0 -40z"/>
<path d="M90250 1060 l0 -40 45 0 45 0 0 40 0 40 -45 0 -45 0 0 -40z"/>
</g>
</svg>
